<?xml version="1.0" encoding="utf-8"?>
<!-- Generator: Adobe Illustrator 17.0.0, SVG Export Plug-In . SVG Version: 6.00 Build 0)  -->
<!DOCTYPE svg PUBLIC "-//W3C//DTD SVG 1.1//EN" "http://www.w3.org/Graphics/SVG/1.1/DTD/svg11.dtd">
<svg version="1.1" xmlns="http://www.w3.org/2000/svg" xmlns:xlink="http://www.w3.org/1999/xlink" x="0px" y="0px" width="540px"
	 height="270px" viewBox="0 0 540 270" enable-background="new 0 0 540 270" xml:space="preserve">
<g id="Layer_2" display="none">
	<rect display="inline" fill="#D9E1E5" width="540" height="270"/>
</g>
<g id="Layer_1">
	<g>
		<g>
			<circle fill="#EF5854" cx="249.213" cy="25.749" r="3.922"/>
			<circle fill="#EF5854" cx="43.259" cy="25.749" r="3.922"/>
			<rect x="43.259" y="21.826" fill="#EF5854" width="205.955" height="7.845"/>
			<circle fill="#EF5854" cx="51.104" cy="17.904" r="3.922"/>
			<circle fill="#EF5854" cx="43.259" cy="25.749" r="3.922"/>
			
				<rect x="43.259" y="16.279" transform="matrix(-0.7071 -0.7071 0.7071 -0.7071 65.1097 70.6216)" fill="#EF5854" width="7.845" height="11.094"/>
			<circle fill="#EF5854" cx="51.104" cy="33.593" r="3.922"/>
			<circle fill="#EF5854" cx="43.259" cy="25.749" r="3.922"/>
			
				<rect x="43.259" y="24.124" transform="matrix(-0.7071 0.7071 -0.7071 -0.7071 101.5237 17.2895)" fill="#EF5854" width="7.845" height="11.094"/>
			<circle fill="#EF5854" cx="241.368" cy="17.904" r="3.922"/>
			
				<rect x="241.368" y="16.279" transform="matrix(0.7071 -0.7071 0.7071 0.7071 56.4106 179.8396)" fill="#EF5854" width="7.845" height="11.094"/>
			<circle fill="#EF5854" cx="241.368" cy="33.593" r="3.922"/>
			<circle fill="#EF5854" cx="249.213" cy="25.749" r="3.922"/>
			
				<rect x="241.368" y="24.124" transform="matrix(0.7071 0.7071 -0.7071 0.7071 92.8246 -164.7564)" fill="#EF5854" width="7.845" height="11.094"/>
		</g>
		<g>
			<circle fill="#EF5854" cx="431.208" cy="25.749" r="3.922"/>
			<circle fill="#EF5854" cx="333.52" cy="25.749" r="3.922"/>
			<rect x="333.52" y="21.826" fill="#EF5854" width="97.688" height="7.845"/>
			<circle fill="#EF5854" cx="341.365" cy="17.904" r="3.922"/>
			<circle fill="#EF5854" cx="333.52" cy="25.749" r="3.922"/>
			
				<rect x="333.52" y="16.279" transform="matrix(-0.7071 -0.7071 0.7071 -0.7071 560.6164 275.8672)" fill="#EF5854" width="7.845" height="11.094"/>
			<circle fill="#EF5854" cx="341.365" cy="33.593" r="3.922"/>
			<circle fill="#EF5854" cx="333.52" cy="25.749" r="3.922"/>
			
				<rect x="333.52" y="24.124" transform="matrix(-0.7071 0.7071 -0.7071 -0.7071 597.0304 -187.9561)" fill="#EF5854" width="7.845" height="11.094"/>
			<circle fill="#EF5854" cx="423.363" cy="17.904" r="3.922"/>
			
				<rect x="423.363" y="16.279" transform="matrix(0.7071 -0.7071 0.7071 0.7071 109.7155 308.529)" fill="#EF5854" width="7.845" height="11.094"/>
			<circle fill="#EF5854" cx="423.363" cy="33.593" r="3.922"/>
			<circle fill="#EF5854" cx="431.208" cy="25.749" r="3.922"/>
			
				<rect x="423.363" y="24.124" transform="matrix(0.7071 0.7071 -0.7071 0.7071 146.1295 -293.4458)" fill="#EF5854" width="7.845" height="11.094"/>
		</g>
		<g>
			<circle fill="#EF5854" cx="489.561" cy="64.381" r="3.922"/>
			<circle fill="#EF5854" cx="489.561" cy="266.078" r="3.922"/>
			<rect x="485.638" y="64.381" fill="#EF5854" width="7.845" height="201.696"/>
			<circle fill="#EF5854" cx="481.716" cy="258.233" r="3.922"/>
			<circle fill="#EF5854" cx="489.561" cy="266.078" r="3.922"/>
			
				<rect x="481.716" y="256.608" transform="matrix(-0.7071 0.7071 -0.7071 -0.7071 1014.408 104.1287)" fill="#EF5854" width="7.845" height="11.094"/>
			<circle fill="#EF5854" cx="497.406" cy="258.233" r="3.922"/>
			<circle fill="#EF5854" cx="489.561" cy="266.078" r="3.922"/>
			
				<rect x="489.561" y="256.608" transform="matrix(0.7071 0.7071 -0.7071 0.7071 329.9095 -272.1618)" fill="#EF5854" width="7.845" height="11.094"/>
			<circle fill="#EF5854" cx="481.716" cy="72.226" r="3.922"/>
			
				<rect x="481.716" y="62.756" transform="matrix(-0.7071 -0.7071 0.7071 -0.7071 780.7384 459.9995)" fill="#EF5854" width="7.845" height="11.094"/>
			<circle fill="#EF5854" cx="497.406" cy="72.226" r="3.922"/>
			<circle fill="#EF5854" cx="489.561" cy="64.381" r="3.922"/>
			
				<rect x="489.561" y="62.756" transform="matrix(0.7071 -0.7071 0.7071 0.7071 96.24 368.9509)" fill="#EF5854" width="7.845" height="11.094"/>
		</g>
		<g>
			<g>
				<g>
					<g>
						<g>
							<g>
								<path fill="#94CE28" d="M70.638,175.3l3.673,58.937v21.241h-17.01c-9.066,0-16.399-7.349-16.415-16.415
									c-0.027-14.983,6.493-24.948,5.202-42.82C45.507,188.197,70.274,175.271,70.638,175.3z"/>
							</g>
							<g>
								<path fill="#127045" d="M45.377,177.384c0-9.066,8.088-18.63,17.153-18.63h9.857v36.359c0,9.066-9.098,16.602-18.164,16.602
									H38.672C43.874,205.441,45.377,177.384,45.377,177.384z"/>
								<g>
									<path fill="#94CE28" d="M221.834,175.3v58.937v21.241h13.337c9.066,0,16.399-7.349,16.415-16.415
										c0.027-14.983-6.493-24.948-5.202-42.82C246.965,188.197,222.198,175.271,221.834,175.3z"/>
								</g>
								<path fill="#127045" d="M247.095,177.384c0-9.066-8.088-18.63-17.153-18.63h-8.17l0.061,36.545
									c0,9.066,7.349,16.415,16.415,16.415H253.8C248.598,205.441,247.095,177.384,247.095,177.384z"/>
							</g>
						</g>
						<path fill="#56BA22" d="M202.387,100.68h-56.15v0.467l-54.702-0.467c-11.566,0-20.942,16.08-20.942,27.647v120.731
							c0,11.566,9.376,20.942,20.942,20.942h54.702h56.15c11.566,0,20.942-9.376,20.942-20.942V128.327
							C223.329,116.76,213.953,100.68,202.387,100.68z"/>
						<path fill="#94CE28" d="M201.309,71.987h-55.072H91.165c-12.161,0-22.02,9.859-22.02,22.021v34.23
							c0,12.161,9.859,22.02,22.02,22.02h55.072h55.072c12.162,0,22.02-9.859,22.02-22.02v-34.23
							C223.329,81.846,213.47,71.987,201.309,71.987z"/>
						<path fill="#94CE28" d="M187.98,160.752h-41.993h-41.993c-9.066,0-16.416,7.35-16.416,16.415v60.119
							c0,9.066,7.35,16.415,16.416,16.415h41.993h41.993c9.066,0,16.416-7.349,16.416-16.415v-60.119
							C204.396,168.101,197.046,160.752,187.98,160.752z"/>
						<g>
							<g>
								<g>
									<path fill="#127045" d="M188.74,71.987v96.004c0,5.704-4.624,10.328-10.328,10.328s-10.328-4.624-10.328-10.328V71.987
										H188.74z"/>
								</g>
							</g>
							<g>
								<g>
									<path fill="#FFFFFF" d="M162.346,124.343v19.671c0,3.438,2.795,6.231,6.231,6.231h19.673c3.433,0,6.228-2.793,6.228-6.231
										v-19.671c0-3.435-2.795-6.228-6.228-6.228h-19.673C165.14,118.115,162.346,120.908,162.346,124.343z M168.084,124.342
										c0-0.272,0.22-0.491,0.493-0.491h19.673c0.271,0,0.491,0.219,0.491,0.491v19.671c0,0.272-0.22,0.495-0.491,0.495h-19.673
										c-0.272,0-0.493-0.222-0.493-0.495V124.342z"/>
								</g>
								<path fill="#FFFFFF" d="M176.266,122.25c0-1.186,0.961-2.147,2.147-2.147l0,0c1.186,0,2.147,0.961,2.147,2.147v10.768
									c0,1.186-0.961,2.147-2.147,2.147l0,0c-1.186,0-2.147-0.961-2.147-2.147V122.25z"/>
							</g>
						</g>
						<g>
							<g>
								<g>
									<path fill="#127045" d="M103.776,71.987v95.822c0,5.704,4.624,10.328,10.328,10.328s10.328-4.624,10.328-10.328V71.987
										H103.776z"/>
								</g>
							</g>
							<g>
								<g>
									<path fill="#FFFFFF" d="M123.94,118.115h-19.673c-3.433,0-6.228,2.793-6.228,6.228v19.671c0,3.438,2.795,6.231,6.228,6.231
										h19.673c3.436,0,6.231-2.793,6.231-6.231v-19.671C130.171,120.908,127.376,118.115,123.94,118.115z M124.432,144.013
										c0,0.272-0.22,0.495-0.493,0.495h-19.673c-0.271,0-0.491-0.222-0.491-0.495v-19.671c0-0.272,0.22-0.491,0.491-0.491h19.673
										c0.272,0,0.493,0.219,0.493,0.491V144.013z"/>
								</g>
								<path fill="#FFFFFF" d="M116.25,122.25c0-1.186-0.961-2.147-2.147-2.147l0,0c-1.186,0-2.147,0.961-2.147,2.147v10.768
									c0,1.186,0.961,2.147,2.147,2.147l0,0c1.186,0,2.147-0.961,2.147-2.147V122.25z"/>
							</g>
						</g>
						<path fill="#56BA22" d="M146.222,45.386c-14.691,0-26.601,11.909-26.601,26.601h10.09c0-9.118,7.392-16.51,16.511-16.51
							c9.118,0,16.511,7.392,16.511,16.51h10.09C172.823,57.295,160.913,45.386,146.222,45.386z"/>
					</g>
				</g>
			</g>
			<g>
				<g>
					<path fill="#127045" d="M190.556,185.235c2.163,0,3.923,1.704,3.923,3.871l0,0c0,2.169-1.759,3.871-3.923,3.871H99.627
						c-2.169,0-3.923-1.702-3.923-3.871l0,0c0-2.166,1.754-3.871,3.923-3.871H190.556z"/>
				</g>
				<path fill="#FFFFFF" d="M194.478,200.084c0,3.167-2.572,5.735-5.734,5.735c-3.21,0-5.737-2.212-5.737-5.735
					c0-3.167,2.569-10.978,5.737-10.978C191.906,189.106,194.478,196.917,194.478,200.084z"/>
			</g>
		</g>
		<g>
			<g>
				<path fill="#032B0A" d="M415.871,248.038L415.871,248.038l-0.001,2.848c0,2.465-0.499,4.813-1.399,6.951
					c0.466,0.032,0.93,0.075,1.399,0.075c6.201,0,12.083-2.869,17.383-7.977v-15.899
					C427.918,242.923,421.761,248.038,415.871,248.038z"/>
				<path fill="#127045" d="M418.852,80.713c-0.029-0.01-0.059-0.019-0.088-0.029c-0.421-0.137-0.842-0.263-1.264-0.374
					c-0.02-0.005-0.041-0.012-0.061-0.017c-0.442-0.116-0.884-0.219-1.325-0.307c-0.022-0.004-0.043-0.007-0.065-0.012
					c-0.385-0.075-0.77-0.138-1.155-0.192c-0.117-0.017-0.234-0.03-0.351-0.045c-0.303-0.037-0.607-0.068-0.91-0.092
					c-0.122-0.01-0.245-0.021-0.367-0.028c-0.398-0.024-0.796-0.04-1.193-0.04c-0.01,0-0.02-0.001-0.029-0.001l0,0h0l-1.856,5.037
					c-0.888-0.497-1.453-0.721-1.775-0.745c-0.129-0.009-0.218,0.013-0.274,0.063c-0.111,0.1-0.087,0.309,0.032,0.59
					c0.626,1.475,3.874,4.928,3.874,4.928c0.45,0,0.905,0.035,1.365,0.093c0.152,0.019,0.306,0.056,0.459,0.082
					c0.308,0.052,0.617,0.108,0.928,0.186c0.188,0.047,0.377,0.108,0.566,0.164c0.279,0.083,0.558,0.17,0.839,0.272
					c0.207,0.076,0.415,0.161,0.624,0.248c0.264,0.11,0.529,0.226,0.794,0.353c0.221,0.106,0.443,0.216,0.665,0.334
					c0.253,0.133,0.506,0.277,0.759,0.425c0.234,0.137,0.468,0.274,0.703,0.424c0.238,0.152,0.477,0.317,0.716,0.482
					c0.249,0.172,0.498,0.34,0.748,0.526c0.212,0.158,0.424,0.332,0.636,0.499c0.275,0.218,0.551,0.428,0.826,0.662
					c0.07,0.06,0.141,0.128,0.211,0.189c0.786,0.681,1.572,1.426,2.354,2.237c0.059,0.061,0.117,0.116,0.176,0.177
					c0.35,0.367,0.698,0.758,1.046,1.15c0.121,0.136,0.242,0.267,0.363,0.407c0.336,0.389,0.671,0.795,1.005,1.207
					c0.129,0.159,0.258,0.316,0.387,0.479c0.333,0.421,0.664,0.856,0.994,1.3c0.123,0.166,0.246,0.332,0.369,0.501
					c0.336,0.461,0.669,0.933,1.001,1.418c0.109,0.159,0.217,0.321,0.325,0.482c0.344,0.512,0.687,1.033,1.026,1.569
					c0.078,0.124,0.156,0.253,0.234,0.378c0.366,0.587,0.73,1.182,1.089,1.797v0c8.344,14.283,14.801,35.985,14.801,61.255
					c0,45.383-16.991,79.293-32.183,79.293h-0.001v2.848c0,2.465-0.499,4.813-1.399,6.951c0.466,0.032,0.93,0.075,1.399,0.075
					c23.227,0,42.057-39.922,42.057-89.168C457.927,121.793,438.801,87.273,418.852,80.713z"/>
			</g>
			<path fill="#56BA22" d="M423.93,45.813c-2.226-1.05-4.882-0.097-5.933,2.129l-7.811,16.553l0.007,0.003L396.92,92.698
				l8.062,3.804l16.796-35.68l4.282-9.075C427.11,49.52,426.157,46.864,423.93,45.813z"/>
			<polygon fill="#307A00" points="415.858,216.903 415.858,210.587 415.858,182.362 415.657,182.362 415.657,249.321 
				415.87,249.321 415.87,216.903 			"/>
			<rect x="407.871" y="210.587" fill="#275B06" width="0.013" height="6.316"/>
			<rect x="415.858" y="164.939" fill="#75C425" width="0.013" height="6.316"/>
			<rect x="415.858" y="171.255" fill="#75C425" width="0.013" height="11.107"/>
			<rect x="415.858" y="182.362" fill="#75C425" width="0.013" height="28.225"/>
			<path fill="#94CE28" d="M346.356,163.421c-4.485,0.975-9.381,4.183-10.109,12.562c0,0-5.213,44.756-5.767,51.125
				c-0.022,0.256-0.037,0.504-0.047,0.746c-0.029-0.211-0.039-0.443-0.015-0.717c-0.291,3.349-0.556,6.397-0.76,8.748
				c-0.337,3.88,0.619,6.13,5.417,6.546l7.059,0.613l0.762-8.778l-0.019-0.036l0.082,0.007l0.629-7.242l0.762-8.778l2.159-24.864
				c0,0,0,0,0-0.001c0.213-0.859,0.37-1.755,0.451-2.685l1.872-21.268l0.554-6.292C348.057,162.994,348.049,163.053,346.356,163.421
				z"/>
			<path fill="#56BA22" d="M412.359,75.918c-2.698-6.258-6.742-6.825-11.397-7.615l-13.971,2.002l-4.392-0.274v1.006l-2.168,3.425
				c-8.749,0-12.607,30.15-16.112,45.167c-0.46,1.97-5.317,5.779-9.309,8.956l-5.931,34.25c0.764,0.037,1.507-0.072,2.196-0.3
				c-0.673,0.231-1.412,0.338-2.196,0.3l-1.918,19.371l-6.986,67.857c0,9.896,8.023,17.92,17.919,17.92h0.269h24.236h15.352
				c9.896,0,17.919-8.023,17.919-17.92v-149.45C415.87,90.783,414.563,81.032,412.359,75.918z M394.57,83.252
				c0.005,0,0.011,0,0.016,0c0,0-0.004,0-0.004,0C394.581,83.252,394.573,83.252,394.57,83.252z M392.712,83.207
				c0.33,0.005,0.675,0.014,1.03,0.024C393.246,83.22,392.719,83.208,392.712,83.207z"/>
			<g>
				<path fill="#94CE28" d="M358.205,196.541v6.316v25.983v8.555v2c0,7.757,6.288,14.046,14.046,14.046h2.926h7.423h9.187h2.979
					c7.757,0,14.046-6.288,14.046-14.046v-4.305v-6.25v-25.983v-6.316H358.205z"/>
				<path fill="#127045" d="M394.765,156.737h-3.193h-8.973h-7.838h-2.511c-7.757,0-14.046,6.288-14.046,14.045v6.316v0.552v17.868
					v0.133c0,7.757,6.288,14.046,14.046,14.046h2.511h7.838h7.898h4.268c7.757,0,14.046-6.289,14.046-14.046v-0.133v-17.868v-0.552
					v-6.316C408.811,163.025,402.523,156.737,394.765,156.737z"/>
			</g>
			<g>
				<g>
					<path fill="#97D350" d="M382.213,68.147h0.006H382.213z"/>
					<path fill="#97D350" d="M381.591,68.147v0.015c0.208-0.01,0.416-0.014,0.622-0.015H381.591z"/>
					<path fill="#97D350" d="M392.199,78.721h1.022C392.872,78.709,392.531,78.708,392.199,78.721z"/>
				</g>
				<path fill="#94CE28" d="M383.841,68.162c-4.28,0.196-10.103,2.388-12.7,9.522l-24.154,69.5l0.778,0.388l1.713,0.419l0.664,0.163
					c4.575,1.665,10.186-2.213,12.533-8.662l19.089-55.355l0.016,0.006c1.304-3.563,3.529-5.155,10.161-5.422
					c0.333-0.013,0.674-0.012,1.022,0h6.419c0-0.003-0.001-0.006-0.001-0.006l0-0.003c5.865,0,10.625-4.822,10.744-10.66
					c0-0.006,0.001-0.013,0.001-0.02C410.129,68.031,384.05,68.152,383.841,68.162z"/>
			</g>
			<path fill="#FFFFFF" d="M350.506,117.952c0.439-1.398,1.929-2.176,3.328-1.736l0.878,0.276c1.398,0.439,2.176,1.929,1.736,3.328
				l-8.182,26.554c-0.439,1.398-1.929,2.176-3.328,1.736l-0.878-0.276c-1.398-0.439-2.176-1.929-1.736-3.328L350.506,117.952z"/>
			<path fill="#94CE28" d="M418.728,73.376c0-2.952-2.393-5.345-5.345-5.345h-17.188c-2.952,0-5.345,2.393-5.345,5.345l0,0
				c0,2.952,2.393,5.345,5.345,5.345h17.188C416.335,78.721,418.728,76.328,418.728,73.376L418.728,73.376z"/>
		</g>
	</g>
</g>
</svg>
